<svg id="ePceB0Jmizh1" xmlns="http://www.w3.org/2000/svg" xmlns:xlink="http://www.w3.org/1999/xlink" viewBox="0 0 300 300" shape-rendering="geometricPrecision" text-rendering="geometricPrecision" project-id="e8959fa123664b57b900f77b38804cd3" export-id="81c3aed7e35247a6b2a24ca7e9148e7e" cached="false"><g transform="matrix(.616101 0 0 0.616107 0.811321 0.809694)"><g><path d="M262.198,0c-28.1,0-55.1,6.1-80.3,18-32,14.9-59.1,38.4-78.4,68-19.9,30.5-30.4,65.8-30.4,102.3v25.7l-34,65c-6.5,12.5-6.8,25.3-.8,35.3s17.5,15.7,31.6,15.7h3.2v51.1c0,27.7,22.5,50.2,50.2,50.2.7,0,1.3,0,2-.1l34.9-5.2v35.1c0,.5,0,1.1.1,1.6c1,12.4,11,21.6,23.7,21.6v0c1.5,0,3-.1,4.6-.4l181.5-32.2c13.2-2.3,23.6-14.7,23.6-28.1v-101c36.1-35.3,56.6-84,56.6-134.5c0-103.7-84.4-188.1-188.1-188.1Zm108.8,306.8c-2.8,2.6-4.4,6.2-4.4,9.9v106.7c-.1.5-.8,1.4-1.3,1.6l-178.2,31.5-.1-46.5c0-3.9-1.7-7.7-4.7-10.2-2.5-2.1-5.6-3.3-8.8-3.3-.7,0-1.3,0-2,.1l-49.3,7.3c-12.4-.5-22.3-10.7-22.3-23.2v-64.6c0-7.5-6-13.5-13.5-13.5h-16.5c-5.1,0-7.8-1.4-8.5-2.6s-.8-4.3,1.6-8.8l35.6-67.9c1-1.9,1.5-4.1,1.5-6.3v-29c0-62.4,36.6-119.6,93.2-145.9h.1c21.5-10,44.7-15.1,68.8-15.1c88.8,0,161.1,72.3,161.1,161.1c0,45-19.1,88.3-52.3,118.7Z"/></g></g><path d="M228.844,32.22v114.218h17.687v-114.22h-17.686l-.001.002Zm-108.25.624C105.087,32.844,92.5,45.43,92.5,60.937s12.587,28.063,28.094,28.063c12.655,0,23.34-8.372,26.844-19.875h44.937v77.313h17.688v-95h-63.033c-3.888-10.837-14.262-18.593-26.436-18.593v-.001Zm193.25,0c-15.507,0-28.063,12.586-28.063,28.093c0,12.124,7.677,22.45,18.44,26.376v59.124h17.655v-58.593c11.596-3.452,20.063-14.193,20.063-26.906c0-15.508-12.587-28.094-28.094-28.094h-.001ZM266.124,92.5v53.938h17.657v-53.938h-17.655-.002Zm188.532,4.03c-15.507,0-28.094,12.588-28.094,28.095c0,13.083,8.948,24.074,21.063,27.188v27.468h-92.938v17.657h110.624v-46.342c10.223-4.192,17.407-14.233,17.407-25.97c0-15.507-12.557-28.094-28.064-28.094l.002-.002ZM30.187,123.657v17.688h66.563v55.594h62.814v-17.659h-45.126v-55.624h-84.25l-.001.001Zm147.032,40.47v159.718h159.81v-159.72h-159.809l-.001.002Zm17.56,15.655h17.657v78.595l32.407,32.406h75.28v17.658h-82.623l-2.594-2.594-10.75-10.75c-1.033,7.385-7.36,13.062-15.03,13.062-8.392,0-15.19-6.796-15.19-15.187c0-7.682,5.696-13.98,13.095-15l-9.655-9.658-2.594-2.593v-85.941l-.003.002Zm54.94.157h17.686v55.313h52.53l.002,17.688h-70.217v-73l-.001-.001ZM53.124,217.375v89.969c-11.49,3.512-19.844,14.198-19.844,26.844c0,15.505,12.557,28.093,28.064,28.093s28.093-12.587,28.093-28.092c0-12.195-7.79-22.564-18.656-26.438v-72.72h88.782v-17.655h-106.439v-.001Zm301.563,0v17.656h53.968v-17.655h-53.97l.002-.001Zm99.968,21.97c-10.898,0-20.342,6.21-25,15.28h-74.97l.002,17.688h72.313c2.325,13.168,13.824,23.187,27.656,23.187c15.507,0,28.063-12.588,28.063-28.094c0-15.507-12.557-28.062-28.064-28.062v.001Zm-349.062,15.28v17.688h53.97v-17.688h-53.97Zm17.156,36.47v84.217c-11.498,3.513-19.875,14.2-19.875,26.844c0,15.506,12.587,28.094,28.094,28.094c15.506,0,28.06-12.588,28.06-28.094c0-12.194-7.766-22.564-18.624-26.437v-66.94h19.156v-17.686h-36.81l-.001.002Zm231.938,0v17.686h45.156v95.283c-11.323,3.624-19.53,14.26-19.53,26.78-.002,15.506,12.585,28.063,28.092,28.063s28.063-12.557,28.063-28.062c0-12.32-7.935-22.778-18.97-26.563v-113.187h-62.814.003ZM192.375,341.53v54.033h17.688v-54.033h-17.688Zm36.47,0v86.564c-11.013,3.794-18.94,14.233-18.94,26.53c0,15.506,12.588,28.095,28.095,28.095s28.063-12.59,28.063-28.095c0-12.53-8.203-23.14-19.532-26.75v-86.344h-17.686Zm37.28,0v54.033h17.688l-.032-54.032h-17.655l-.001-.001Zm38.094,0v140.064h17.655v-140.064h-17.654-.001Z" transform="matrix(.294962 0 0 0.294962 90.689872 23.479241)"/></svg>
